<?xml version="1.0" standalone="no"?>
<!DOCTYPE svg PUBLIC "-//W3C//DTD SVG 20010904//EN"
 "http://www.w3.org/TR/2001/REC-SVG-20010904/DTD/svg10.dtd">
<svg version="1.0" xmlns="http://www.w3.org/2000/svg"
 width="1153.000000pt" height="1153.000000pt" viewBox="0 0 1153.000000 1153.000000"
 preserveAspectRatio="xMidYMid meet">
<metadata>
Created by potrace 1.14, written by Peter Selinger 2001-2017
</metadata>
<g transform="translate(0.000000,1153.000000) scale(0.100000,-0.100000)"
fill="#000000" stroke="none">
<path d="M5813 10642 c-12 -4 -39 -27 -61 -52 -35 -40 -208 -269 -239 -316 -7
-11 -35 -51 -61 -90 -27 -39 -52 -77 -55 -85 -4 -8 -15 -26 -25 -41 -137 -212
-361 -648 -519 -1008 -30 -69 -58 -134 -63 -145 -5 -11 -21 -51 -36 -90 -15
-38 -34 -88 -44 -110 -52 -123 -214 -561 -226 -610 -4 -17 -10 -34 -14 -40 -3
-5 -21 -55 -39 -110 -18 -55 -36 -109 -40 -120 -12 -31 -55 -167 -101 -315
-23 -74 -55 -175 -70 -225 -16 -49 -38 -124 -49 -165 -11 -41 -26 -95 -35
-120 -24 -72 -110 -386 -172 -625 -56 -215 -74 -288 -113 -450 -28 -117 -119
-493 -131 -540 -6 -22 -19 -80 -30 -130 -24 -115 -74 -341 -104 -473 -16 -73
-20 -105 -12 -111 6 -5 173 -8 371 -7 l359 1 8 30 c4 17 23 118 42 225 47 258
49 265 96 485 22 105 43 201 46 215 3 14 14 61 25 105 12 44 27 109 34 145 14
69 79 335 94 385 5 17 21 75 36 130 61 225 190 679 215 755 10 30 28 89 40
130 12 41 25 80 28 85 4 6 7 16 8 23 3 20 134 412 149 447 8 17 36 93 64 170
62 174 112 306 139 365 11 25 37 86 58 135 20 50 59 136 86 192 26 55 48 106
48 111 0 6 3 12 8 14 4 2 23 35 42 73 19 39 37 72 40 75 3 3 18 30 34 60 16
30 35 62 42 71 8 8 14 18 14 21 0 6 51 84 89 135 13 18 28 30 33 27 4 -3 6
-10 3 -15 -4 -5 0 -9 7 -9 14 -1 93 -102 126 -162 12 -20 33 -56 49 -80 25
-40 183 -351 183 -362 0 -2 13 -33 29 -68 94 -204 262 -683 370 -1058 12 -41
31 -104 41 -140 97 -328 281 -1076 340 -1380 10 -52 26 -126 34 -165 9 -38 16
-78 16 -87 0 -17 -64 -18 -1162 -20 l-1161 -3 -14 -65 c-8 -36 -22 -105 -32
-155 -18 -84 -85 -405 -146 -694 -14 -68 -24 -130 -21 -138 5 -11 170 -13
1023 -11 l1018 3 0 -55 0 -55 -1034 -2 c-569 -2 -1036 -4 -1038 -6 -2 -2 -12
-53 -23 -113 -19 -101 -35 -189 -139 -719 -21 -110 -36 -203 -32 -208 4 -4
702 -6 1552 -5 l1544 3 -3 30 c-2 17 -10 71 -18 120 -8 50 -17 104 -20 120 -2
17 -9 55 -15 85 -32 175 -36 209 -21 215 20 7 95 6 108 -3 11 -7 35 -117 89
-422 14 -80 31 -166 37 -192 7 -26 9 -50 6 -53 -2 -3 -740 -6 -1639 -8 l-1634
-2 -3 -35 c-2 -19 -8 -40 -14 -47 -5 -7 -7 -16 -4 -22 3 -5 2 -32 -4 -59 -5
-28 -14 -86 -19 -129 -6 -43 -16 -109 -21 -148 -6 -38 -15 -101 -21 -140 -10
-74 -14 -100 -30 -205 -29 -196 -41 -292 -36 -296 3 -3 815 -6 1804 -7 l1798
-2 1 -52 2 -53 -177 0 c-1079 -3 -3606 1 -3610 6 -6 6 33 269 64 434 3 14 12
70 20 125 9 55 22 136 31 180 8 44 17 98 20 120 2 22 29 186 59 365 143 858
184 1115 176 1120 -5 3 -174 4 -375 2 -357 -2 -366 -3 -366 -22 0 -11 -4 -20
-9 -20 -5 0 -7 -8 -4 -18 4 -19 -9 -96 -46 -257 -12 -49 -28 -126 -35 -170 -8
-44 -27 -136 -41 -204 -14 -68 -34 -172 -45 -230 -10 -58 -30 -162 -43 -231
-59 -294 -109 -572 -157 -870 -31 -190 -60 -437 -60 -508 0 -75 4 -91 33 -152
62 -124 201 -280 342 -384 22 -16 45 -34 50 -41 6 -6 37 -29 69 -51 33 -21 78
-52 100 -67 152 -103 477 -274 641 -337 33 -13 74 -28 90 -35 123 -50 372
-118 464 -127 33 -3 35 -2 53 52 10 30 22 64 27 75 5 11 24 54 42 95 19 41 36
77 39 80 3 3 23 32 44 65 41 62 156 184 216 228 53 39 176 97 255 120 130 39
456 26 553 -22 9 -4 44 -21 77 -36 77 -36 129 -72 199 -136 102 -93 164 -184
251 -369 74 -156 65 -145 119 -148 60 -4 230 24 303 49 29 10 53 16 53 14 0
-5 118 36 215 75 129 52 349 164 434 222 24 16 50 27 57 24 8 -3 13 -2 11 3
-2 9 102 91 116 91 4 0 18 9 30 21 12 12 46 39 76 62 87 65 101 76 207 182
110 109 188 208 230 294 34 68 41 147 25 263 -17 118 -101 562 -121 638 l-9
35 -1771 -3 -1771 -2 3 57 3 58 1759 3 c968 1 1761 4 1763 6 3 3 -11 77 -82
431 -8 39 -26 124 -39 190 -43 205 -76 375 -102 515 -14 74 -33 169 -43 210
-11 41 -27 121 -37 178 -17 98 -18 102 -43 102 -14 0 -214 0 -443 0 -230 0
-418 2 -418 6 0 3 -9 49 -19 102 -11 54 -27 140 -36 192 -21 119 -52 248 -67
278 l-11 22 -934 0 -933 0 0 50 c0 48 1 50 28 50 15 0 626 0 1359 0 750 0
1334 4 1337 9 3 4 -6 57 -20 117 -14 60 -34 148 -44 195 -37 170 -189 781
-255 1024 -19 72 -51 190 -70 263 -20 74 -42 150 -50 170 -8 20 -21 66 -30
102 -9 36 -29 108 -46 160 -16 52 -34 109 -39 125 -186 627 -490 1457 -671
1832 -21 44 -39 84 -39 87 0 12 -202 411 -215 426 -7 8 -17 27 -20 43 -4 15
-11 30 -16 33 -5 2 -16 22 -26 42 -9 20 -20 39 -23 42 -3 3 -24 37 -46 75
-105 180 -194 310 -356 520 -4 6 -28 33 -53 60 -24 28 -43 56 -40 63 2 6 3 12
2 11 -1 -1 -12 -4 -24 -7z m805 -6619 l3 -53 -815 0 -816 0 0 55 0 55 813 -3
812 -2 3 -52z"/>
<path d="M5838 8802 c-24 -10 -53 -51 -67 -94 -10 -29 -10 -59 -1 -134 l12
-96 -31 -49 c-17 -27 -38 -71 -48 -98 -17 -49 -17 -52 5 -125 29 -99 29 -146
-1 -174 -29 -28 -55 -28 -78 0 -27 30 -23 62 11 100 35 38 38 71 14 142 -15
44 -15 61 2 129 8 35 -13 36 -49 3 -36 -33 -55 -74 -66 -145 -7 -45 -21 -79
-50 -122 -88 -132 -58 -298 76 -418 31 -28 61 -51 66 -51 4 0 29 -9 54 -21 40
-18 60 -21 142 -17 118 6 173 29 247 103 128 128 149 293 53 415 -18 24 -33
61 -43 112 -9 43 -16 80 -16 83 0 3 -19 26 -41 50 -32 34 -45 43 -55 35 -10
-9 -10 -18 2 -45 18 -43 18 -76 1 -118 -30 -71 -29 -83 8 -127 19 -23 35 -53
35 -66 0 -26 -35 -64 -60 -64 -31 0 -60 38 -60 78 0 37 53 206 62 197 7 -7 -9
98 -20 134 -6 18 -19 45 -29 60 -9 14 -32 53 -51 86 -43 76 -45 139 -7 197 14
20 25 40 25 43 0 7 -21 5 -42 -3z"/>
<path d="M5662 7480 c-99 -26 -179 -71 -247 -137 -76 -74 -116 -139 -154 -251
-73 -213 -26 -453 119 -602 157 -162 410 -226 611 -156 201 70 332 200 391
391 25 80 30 244 9 330 -17 70 -75 183 -117 227 -21 23 -32 43 -28 50 4 7 4
10 0 6 -4 -3 -31 11 -59 33 -29 22 -64 45 -79 51 -15 7 -25 15 -23 18 2 3 -4
6 -13 7 -9 1 -44 11 -77 23 -88 32 -237 36 -333 10z"/>
<path d="M6584 6648 c-98 -194 -288 -352 -503 -417 -291 -88 -507 -60 -744 96
-44 29 -66 50 -63 59 4 9 -2 14 -17 14 -43 0 -175 158 -220 263 -19 44 -37 34
-37 -22 0 -148 65 -333 159 -451 132 -166 281 -254 511 -306 102 -23 288 -15
380 16 196 65 341 177 452 348 75 114 113 226 124 365 8 95 -6 107 -42 35z"/>
</g>
</svg>
